HIERARCHY
ROOT hip
{
  OFFSET -96.3902 82.8443 104.952
  CHANNELS 6 Xposition Yposition Zposition Zrotation Xrotation Yrotation
  JOINT abdomen
  {
    OFFSET 0 20.6881 -0.73152
    CHANNELS 3 Zrotation Xrotation Yrotation
    JOINT chest
    {
      OFFSET 0 11.7043 -0.48768
      CHANNELS 3 Zrotation Xrotation Yrotation
      JOINT neck
      {
        OFFSET 0 22.1894 -2.19456
        CHANNELS 3 Zrotation Xrotation Yrotation
        JOINT head
        {
          OFFSET -0.24384 7.07133 1.2192
          CHANNELS 3 Zrotation Xrotation Yrotation
          JOINT leftEye
          {
            OFFSET 4.14528 8.04674 8.04672
            CHANNELS 3 Zrotation Xrotation Yrotation
            End Site
            {
              OFFSET 1 0 0
            }
          }
          JOINT rightEye
          {
            OFFSET -3.6576 8.04674 8.04672
            CHANNELS 3 Zrotation Xrotation Yrotation
            End Site
            {
              OFFSET 1 0 0
            }
          }
        }
      }
      JOINT rCollar
      {
        OFFSET -2.68224 19.2634 -4.8768
        CHANNELS 3 Zrotation Xrotation Yrotation
        JOINT rShldr
        {
          OFFSET -8.77824 -1.95073 1.46304
          CHANNELS 3 Zrotation Xrotation Yrotation
          JOINT rForeArm
          {
            OFFSET -28.1742 -1.7115 0.48768
            CHANNELS 3 Zrotation Xrotation Yrotation
            JOINT rHand
            {
              OFFSET -22.5879 0.773209 7.07136
              CHANNELS 3 Zrotation Xrotation Yrotation
              JOINT rThumb1
              {
                OFFSET -1.2192 -0.487915 3.41376
                CHANNELS 3 Zrotation Xrotation Yrotation
                JOINT rThumb2
                {
                  OFFSET -3.37035 -0.52449 3.41376
                  CHANNELS 3 Zrotation Xrotation Yrotation
                  End Site
                  {
                    OFFSET -1.78271 -1.18214 1.43049
                  }
                }
              }
              JOINT rIndex1
              {
                OFFSET -7.75947 0.938293 5.60832
                CHANNELS 3 Zrotation Xrotation Yrotation
                JOINT rIndex2
                {
                  OFFSET -2.54057 -0.884171 1.56538
                  CHANNELS 3 Zrotation Xrotation Yrotation
                  End Site
                  {
                    OFFSET -1.62519 -0.234802 1.16502
                  }
                }
              }
              JOINT rMid1
              {
                OFFSET -8.24714 1.18213 3.41376
                CHANNELS 3 Zrotation Xrotation Yrotation
                JOINT rMid2
                {
                  OFFSET -3.10165 -0.590103 1.0647
                  CHANNELS 3 Zrotation Xrotation Yrotation
                  End Site
                  {
                    OFFSET -2.48547 -0.328903 0.83742
                  }
                }
              }
              JOINT rRing1
              {
                OFFSET -8.82822 0.546677 1.51678
                CHANNELS 3 Zrotation Xrotation Yrotation
                JOINT rRing2
                {
                  OFFSET -2.60934 -0.819778 -0.0198488
                  CHANNELS 3 Zrotation Xrotation Yrotation
                  End Site
                  {
                    OFFSET -2.33842 -0.294052 0.168128
                  }
                }
              }
              JOINT rPinky1
              {
                OFFSET -8.27202 -0.0477905 -0.4584
                CHANNELS 3 Zrotation Xrotation Yrotation
                JOINT rPinky2
                {
                  OFFSET -1.82734 -0.647385 -0.700984
                  CHANNELS 3 Zrotation Xrotation Yrotation
                  End Site
                  {
                    OFFSET -1.69225 -0.51767 -0.607171
                  }
                }
              }
            }
          }
        }
      }
      JOINT lCollar
      {
        OFFSET 2.68224 19.2634 -4.8768
        CHANNELS 3 Zrotation Xrotation Yrotation
        JOINT lShldr
        {
          OFFSET 8.77824 -1.95073 1.46304
          CHANNELS 3 Zrotation Xrotation Yrotation
          JOINT lForeArm
          {
            OFFSET 28.1742 -1.7115 0.48768
            CHANNELS 3 Zrotation Xrotation Yrotation
            JOINT lHand
            {
              OFFSET 22.5879 0.773209 7.07136
              CHANNELS 3 Zrotation Xrotation Yrotation
              JOINT lThumb1
              {
                OFFSET 1.2192 -0.487915 3.41376
                CHANNELS 3 Zrotation Xrotation Yrotation
                JOINT lThumb2
                {
                  OFFSET 3.37035 -0.52449 3.41376
                  CHANNELS 3 Zrotation Xrotation Yrotation
                  End Site
                  {
                    OFFSET 1.78271 -1.18214 1.43049
                  }
                }
              }
              JOINT lIndex1
              {
                OFFSET 7.75947 0.938293 5.60832
                CHANNELS 3 Zrotation Xrotation Yrotation
                JOINT lIndex2
                {
                  OFFSET 2.54057 -0.884171 1.56538
                  CHANNELS 3 Zrotation Xrotation Yrotation
                  End Site
                  {
                    OFFSET 1.62519 -0.234802 1.16502
                  }
                }
              }
              JOINT lMid1
              {
                OFFSET 8.24714 1.18213 3.41376
                CHANNELS 3 Zrotation Xrotation Yrotation
                JOINT lMid2
                {
                  OFFSET 3.10165 -0.590103 1.0647
                  CHANNELS 3 Zrotation Xrotation Yrotation
                  End Site
                  {
                    OFFSET 2.48547 -0.328903 0.83742
                  }
                }
              }
              JOINT lRing1
              {
                OFFSET 8.82822 0.546677 1.51678
                CHANNELS 3 Zrotation Xrotation Yrotation
                JOINT lRing2
                {
                  OFFSET 2.60934 -0.819778 -0.0198488
                  CHANNELS 3 Zrotation Xrotation Yrotation
                  End Site
                  {
                    OFFSET 2.33842 -0.294052 0.168128
                  }
                }
              }
              JOINT lPinky1
              {
                OFFSET 8.27202 -0.0477905 -0.4584
                CHANNELS 3 Zrotation Xrotation Yrotation
                JOINT lPinky2
                {
                  OFFSET 1.82734 -0.647385 -0.700984
                  CHANNELS 3 Zrotation Xrotation Yrotation
                  End Site
                  {
                    OFFSET 1.69225 -0.51767 -0.607171
                  }
                }
              }
            }
          }
        }
      }
    }
  }
  JOINT rButtock
  {
    OFFSET -8.77824 4.35084 1.2192
    CHANNELS 3 Zrotation Xrotation Yrotation
    JOINT rThigh
    {
      OFFSET 0 -1.70687 -2.19456
      CHANNELS 3 Zrotation Xrotation Yrotation
      JOINT rShin
      {
        OFFSET 0 -36.8199 0.73152
        CHANNELS 3 Zrotation Xrotation Yrotation
        JOINT rFoot
        {
          OFFSET 0.73152 -45.1104 -5.12064
          CHANNELS 3 Zrotation Xrotation Yrotation
          End Site
          {
            OFFSET -1.1221 -3.69964 12.103
          }
        }
      }
    }
  }
  JOINT lButtock
  {
    OFFSET 8.77824 4.35084 1.2192
    CHANNELS 3 Zrotation Xrotation Yrotation
    JOINT lThigh
    {
      OFFSET 0 -1.70687 -2.19456
      CHANNELS 3 Zrotation Xrotation Yrotation
      JOINT lShin
      {
        OFFSET 0 -36.8199 0.73152
        CHANNELS 3 Zrotation Xrotation Yrotation
        JOINT lFoot
        {
          OFFSET -0.73152 -45.1104 -5.12064
          CHANNELS 3 Zrotation Xrotation Yrotation
          End Site
          {
            OFFSET 1.1221 -3.69964 12.103
          }
        }
      }
    }
  }
}
MOTION
Frames:	5
Frame Time:	0.00833333
85.738 84.8839 -58.31 0.147522 -0.000239384 -0.00252446 -0.194077 -0.000752048 -0.00553941 -0.0535362 -0.00112972 -0.00927447 -7.31046e-015 0 3.10602e-018 -2.19843e-014 3.18055e-015 6.21202e-018 -0 0 0 -0 0 0 -3.62928e-015 -2.71776e-018 1.49089e-016 -7.55992e-014 5.71506e-016 5.96354e-016 -1.32261e-012 3.96178e-013 -9.54166e-015 -1.5152e-011 -3.98315e-013 -3.18055e-015 -3.57419e-011 -1.2179e-014 -9.54166e-015 -6.17369e-011 -2.22639e-014 -1.43125e-014 -3.57379e-011 -1.07344e-014 -1.27222e-014 7.73091 5.47488 0.417314 -3.57402e-011 -1.16289e-014 -6.36111e-015 2.90554 0.965183 0.102902 -3.57312e-011 -1.12313e-014 -7.15625e-015 10.2786 0.731801 0.0259123 -3.57427e-011 -1.43125e-014 3.18055e-015 2.22167 -0.733487 -0.20892 -3.72599e-015 -3.10601e-018 -1.49089e-016 -7.91081e-014 1.61513e-016 -1.19271e-015 -1.3249e-012 -3.94588e-013 1.27222e-014 -1.51533e-011 3.99284e-013 -9.54166e-015 -3.57436e-011 4.71962e-015 -9.54166e-015 -6.17214e-011 0 -5.56597e-015 -3.57494e-011 6.75868e-015 9.54166e-015 -7.73091 5.47488 -0.417314 -3.5743e-011 5.36719e-015 -6.36111e-015 -2.90554 0.965183 -0.102902 -3.57528e-011 5.06901e-015 -5.56597e-015 -10.2786 0.731801 -0.0259123 -3.57383e-011 2.38542e-015 -1.59028e-014 -2.22167 -0.733487 0.20892 -2.03217e-016 0 -3.88251e-019 0.355847 -2.82714 -0.0340693 -0.00665502 -0.431853 -0.0584469 -0.502538 3.25829 0.123799 2.03217e-016 0 3.88251e-019 -0.651368 -3.58303 0.0525573 0.00446006 0.937453 0.0381208 0.504976 2.64491 -0.111593 
81.8831 83.3341 -60.0509 -0.141691 0.251012 -13.7033 0.297091 3.50339 0.820833 0.300928 -1.45214 0.258008 -2.94286 -1.18764 -1.074 3.329 1.77264 -1.33537 -0 0 0 -0 0 0 6.02276e-015 -7.15139e-016 -1.44305e-013 22.7944 3.23587 -0.432235 -4.31649 -1.98084 6.72068 0.0176912 2.95337 0.413084 2.15607e-010 -4.43202e-011 -2.4964e-010 3.6955e-010 -7.60395e-011 -4.33812e-010 2.15616e-010 -4.43191e-011 -2.49646e-010 7.73091 5.47488 0.417314 2.15608e-010 -4.43209e-011 -2.49637e-010 2.90554 0.965183 0.102902 2.15615e-010 -4.43204e-011 -2.49639e-010 10.2786 0.731801 0.0259123 2.15603e-010 -4.43217e-011 -2.49629e-010 2.22167 -0.733487 -0.20892 5.94549e-015 -7.17902e-016 -1.44577e-013 -22.2653 5.59158 0.756383 5.30891 -2.67777 -7.98336 -0.0080141 1.98597 -0.278505 1.96364e-010 -6.12895e-011 2.01131e-010 3.40871e-010 -1.06538e-010 3.46589e-010 1.9636e-010 -6.12878e-011 2.01145e-010 -7.73091 5.47488 -0.417314 1.96365e-010 -6.12887e-011 2.01133e-010 -2.90554 0.965183 -0.102902 1.96356e-010 -6.12891e-011 2.01133e-010 -10.2786 0.731801 -0.0259123 1.96369e-010 -6.12912e-011 2.01123e-010 -2.22167 -0.733487 0.20892 -2.03217e-016 0 -3.88251e-019 2.23035 -4.05867 -0.146695 0.0238008 6.89935 0.0866124 -0.581991 -1.95843 -0.46749 2.03217e-016 0 3.88251e-019 -0.189455 -10.2998 0.183586 0.00954893 12.9033 -0.123516 0.461901 0.306743 -0.682316 
81.7329 83.3099 -59.9236 -0.31784 0.465973 -28.1839 0.698669 7.20131 1.69521 0.701374 -2.98619 0.53888 -6.10172 -2.44433 -2.21099 6.93184 3.63676 -2.74989 -0 0 0 -0 0 0 1.73277e-014 5.48006e-016 -3.09781e-013 46.942 6.67073 -0.890201 -8.3826 -3.98725 13.858 -0.0101227 6.06154 0.851554 5.41872e-010 -1.34906e-010 -5.62592e-010 9.29622e-010 -2.32196e-010 -9.77904e-010 5.41888e-010 -1.34905e-010 -5.62601e-010 7.73091 5.47488 0.417314 5.41874e-010 -1.34908e-010 -5.62589e-010 2.90554 0.965183 0.102902 5.41879e-010 -1.34908e-010 -5.62592e-010 10.2786 0.731801 0.0259123 5.41866e-010 -1.34907e-010 -5.62583e-010 2.22167 -0.733487 -0.20892 1.72713e-014 5.42677e-016 -3.10026e-013 -45.9649 11.5076 1.57144 10.1168 -5.3343 -16.4766 0.00455703 4.0859 -0.574126 4.91527e-010 -1.7599e-010 4.25834e-010 8.52696e-010 -3.05948e-010 7.33482e-010 4.91524e-010 -1.75989e-010 4.25843e-010 -7.73091 5.47488 -0.417314 4.91528e-010 -1.75989e-010 4.25835e-010 -2.90554 0.965183 -0.102902 4.91519e-010 -1.7599e-010 4.25833e-010 -10.2786 0.731801 -0.0259123 4.91531e-010 -1.75991e-010 4.25825e-010 -2.22167 -0.733487 0.20892 -2.03217e-016 0 -3.88251e-019 4.20262 -5.38823 -0.266587 0.0144859 14.6814 0.246931 -0.784975 -7.47868 -1.10617 2.03217e-016 0 3.88251e-019 0.3337 -17.3929 0.346272 0.095858 25.6276 -0.320219 0.360137 -2.15044 -1.33021 
81.5656 83.2488 -59.8178 -0.393824 0.584398 -41.1071 0.971898 10.5029 2.51107 1.05057 -4.35378 0.794619 -8.96228 -3.55791 -3.22753 10.2356 5.30633 -4.02146 -0 0 0 -0 0 0 2.53268e-014 -2.13998e-015 -4.33214e-013 68.5315 9.70539 -1.31344 -11.5817 -5.61615 20.2514 -0.0759856 8.85824 1.25255 7.18304e-010 -1.32936e-010 -7.48901e-010 1.23212e-009 -2.28074e-010 -1.30141e-009 7.18324e-010 -1.32936e-010 -7.48912e-010 7.73091 5.47488 0.417314 7.18305e-010 -1.32939e-010 -7.48897e-010 2.90554 0.965183 0.102902 7.18309e-010 -1.32939e-010 -7.48901e-010 10.2786 0.731801 0.0259123 7.18295e-010 -1.32937e-010 -7.48893e-010 2.22167 -0.733487 -0.20892 2.52885e-014 -2.14749e-015 -4.33434e-013 -67.2555 16.7628 2.35863 13.7449 -7.4108 -24.138 0.0341441 5.95736 -0.839547 6.60579e-010 -1.83878e-010 6.03411e-010 1.14606e-009 -3.19615e-010 1.03978e-009 6.60578e-010 -1.83877e-010 6.03416e-010 -7.73091 5.47488 -0.417314 6.6058e-010 -1.83877e-010 6.03411e-010 -2.90554 0.965183 -0.102902 6.60572e-010 -1.83877e-010 6.03409e-010 -10.2786 0.731801 -0.0259123 6.60584e-010 -1.83879e-010 6.03401e-010 -2.22167 -0.733487 0.20892 -2.03217e-016 0 -3.88251e-019 5.96474 -6.52164 -0.373342 -0.0330771 21.5613 0.40305 -1.06927 -12.3868 -1.68816 2.03217e-016 0 3.88251e-019 0.834585 -23.7326 0.477342 0.263379 36.8339 -0.546523 0.235744 -4.36732 -1.82928 
81.3974 83.2671 -59.7114 -0.428918 0.618012 -50.1349 1.13649 12.8215 3.14615 1.2434 -5.30554 0.985614 -10.9822 -4.31852 -3.9376 12.6178 6.50038 -4.92137 -0 0 0 -0 0 0 2.50614e-014 -1.47058e-014 -4.51539e-013 83.6213 11.7416 -1.63389 -13.5729 -6.61491 24.6986 -0.147365 10.878 1.54763 5.20149e-010 1.00423e-010 -6.18599e-010 8.907e-010 1.76743e-010 -1.07345e-009 5.20171e-010 1.00422e-010 -6.18612e-010 7.73091 5.47488 0.417314 5.2015e-010 1.00419e-010 -6.18596e-010 2.90554 0.965183 0.102902 5.20153e-010 1.00419e-010 -6.186e-010 10.2786 0.731801 0.0259123 5.20139e-010 1.00423e-010 -6.18592e-010 2.22167 -0.733487 -0.20892 2.5034e-014 -1.47145e-014 -4.51738e-013 -82.2014 20.3766 2.99294 15.9377 -8.62951 -29.5413 0.0650509 7.25818 -1.02562 5.14356e-010 7.52662e-011 6.63174e-010 8.93258e-010 1.31074e-010 1.14458e-009 5.14355e-010 7.5267e-011 6.63177e-010 -7.73091 5.47488 -0.417314 5.14358e-010 7.52675e-011 6.63174e-010 -2.90554 0.965183 -0.102902 5.1435e-010 7.52669e-011 6.63171e-010 -10.2786 0.731801 -0.0259123 5.14361e-010 7.52662e-011 6.63165e-010 -2.22167 -0.733487 0.20892 -2.03217e-016 0 -3.88251e-019 7.21242 -7.16478 -0.446011 -0.0896278 26.186 0.522147 -1.31796 -15.7702 -2.08584 2.03217e-016 0 3.88251e-019 1.18757 -28.1897 0.493899 0.444753 44.2466 -0.749775 0.169872 -5.98642 -1.94861 
